HIERARCHY
ROOT root
{
	OFFSET	0	13.1	24.9
	CHANNELS 6  Xposition Yposition Zposition Xrotation Yrotation Zrotation
	JOINT spine_1
	{
		OFFSET	0	9.99999	0
		CHANNELS 3  Xrotation Yrotation Zrotation
		JOINT spine_2
		{
			OFFSET	0	112	-10
			CHANNELS 3  Xrotation Yrotation Zrotation
			JOINT spine_3
			{
				OFFSET	0	206.5	19.3
				CHANNELS 3  Xrotation Yrotation Zrotation
				JOINT spine_4
				{
					OFFSET	0	110.4	14.6
					CHANNELS 3  Xrotation Yrotation Zrotation
					JOINT neck_1
					{
						OFFSET	0	71.8	-50.3
						CHANNELS 3  Xrotation Yrotation Zrotation
						JOINT neck_2
						{
							OFFSET	0	86.2	-25.8
							CHANNELS 3  Xrotation Yrotation Zrotation
							JOINT head_ee
							{
								OFFSET	0	179.8	-8.7
								CHANNELS 3  Xrotation Yrotation Zrotation
								End Site
								{
									OFFSET	1	0	0
								}
							}
						}
					}
					JOINT left_clavicle
					{
						OFFSET	-43.2	22.4	-70.8
						CHANNELS 3  Xrotation Yrotation Zrotation
						JOINT left_shoulder
						{
							OFFSET	-93.9	-5.79999	48.7
							CHANNELS 3  Xrotation Yrotation Zrotation
							JOINT left_elbow
							{
								OFFSET	-291.4	-30.8	15.2
								CHANNELS 3  Xrotation Yrotation Zrotation
								JOINT left_lowarm_twist
								{
									OFFSET	-110.7	-3.89999	13.6
									CHANNELS 3  Xrotation Yrotation Zrotation
									JOINT left_hand
									{
										OFFSET	-110.7	-3.89999	13.6
										CHANNELS 3  Xrotation Yrotation Zrotation
										JOINT left_ee
										{
											OFFSET	-80.8	-5.10001	12.1
											CHANNELS 3  Xrotation Yrotation Zrotation
											End Site
											{
												OFFSET	1	0	0
											}
										}
									}
								}
							}
						}
					}
					JOINT right_clavicle
					{
						OFFSET	43.2	22.4	-70.8
						CHANNELS 3  Xrotation Yrotation Zrotation
						JOINT right_shoulder
						{
							OFFSET	93.9	-5.79999	48.7
							CHANNELS 3  Xrotation Yrotation Zrotation
							JOINT right_elbow
							{
								OFFSET	291.4	-30.8	15.2
								CHANNELS 3  Xrotation Yrotation Zrotation
								JOINT right_lowarm_twist
								{
									OFFSET	110.7	-3.89999	13.6
									CHANNELS 3  Xrotation Yrotation Zrotation
									JOINT right_hand
									{
										OFFSET	110.7	-3.89999	13.6
										CHANNELS 3  Xrotation Yrotation Zrotation
										JOINT right_ee
										{
											OFFSET	80.8	-5.10001	12.1
											CHANNELS 3  Xrotation Yrotation Zrotation
											End Site
											{
												OFFSET	1	0	0
											}
										}
									}
								}
							}
						}
					}
				}
			}
		}
	}
	JOINT left_hip
	{
		OFFSET	-82.8	-127.5	0.300001
		CHANNELS 3  Xrotation Yrotation Zrotation
		JOINT left_knee
		{
			OFFSET	-28.2	-396.7	2.2
			CHANNELS 3  Xrotation Yrotation Zrotation
			JOINT left_ankle
			{
				OFFSET	-11.7	-411.3	35.4
				CHANNELS 3  Xrotation Yrotation Zrotation
				JOINT left_toes
				{
					OFFSET	0	-60	-88.6
					CHANNELS 3  Xrotation Yrotation Zrotation
					JOINT left_foot_ee
					{
						OFFSET	-22.5	-16.5	-42.2
						CHANNELS 3  Xrotation Yrotation Zrotation
						End Site
						{
							OFFSET	1	0	0
						}
					}
				}
			}
		}
	}
	JOINT right_hip
	{
		OFFSET	82.8	-127.5	0.300001
		CHANNELS 3  Xrotation Yrotation Zrotation
		JOINT right_knee
		{
			OFFSET	28.2	-396.7	2.2
			CHANNELS 3  Xrotation Yrotation Zrotation
			JOINT right_ankle
			{
				OFFSET	11.7	-411.3	35.4
				CHANNELS 3  Xrotation Yrotation Zrotation
				JOINT right_toes
				{
					OFFSET	0	-60	-88.6
					CHANNELS 3  Xrotation Yrotation Zrotation
					JOINT right_foot_ee
					{
						OFFSET	22.5	-16.5	-42.2
						CHANNELS 3  Xrotation Yrotation Zrotation
						End Site
						{
							OFFSET	1	0	0
						}
					}
				}
			}
		}
	}
}
MOTION
Frames: 12
Frame Time: 0.02
636.302 694.052 -1892.13 -66.0156 81.205 80.8996 2.75252 -1.06536 -5.3226 2.76798 -0.725015 -5.37938 2.83256 0.153214 -5.42571 2.79219 -0.704334 -5.38211 3.24554 -7.21509 8.13752 3.99308 -19.4742 8.75589 -0.0 0.0 -0.0 7.62342 6.2585 14.6778 -31.3739 -10.2267 74.4774 0.605242 -16.6899 0.0887808 24.9864 0.193917 -3.16071 0.408609 -1.79559 1.98202 -0.0 0.0 -0.0 3.66086 4.27367 -6.80234 0.374835 19.2019 -55.2748 0.908244 24.2235 -0.194909 -2.09599 0.0785503 -0.256108 -0.453423 17.816 10.6414 0.0 0.0 0.0 25.6823 -27.2629 -19.209 -40.2135 -0.480407 6.02814 35.1189 -11.0447 -4.60037 11.501 -0.0 -0.0 -0.0 0.0 -0.0 15.2928 -2.92227 -18.1221 1.12199 0.0478254 0.165528 25.2738 -0.323927 3.38273 0.757485 -0.0 -0.0 0.0 0.0 0.0 
625.904 694.792 -1896.37 -67.1839 81.2955 81.8181 2.7767 -0.882063 -5.2145 2.79165 -0.548934 -5.25989 2.83844 0.307853 -5.27943 2.79996 -0.528616 -5.26196 4.58562 -7.24562 8.24161 5.4149 -19.5924 9.14461 -0.0 0.0 -0.0 7.45219 5.92736 14.3674 -31.5685 -11.9597 73.8969 0.57132 -15.8025 0.0792906 24.9949 0.193746 -3.16179 0.41402 -0.681849 2.48266 -0.0 0.0 -0.0 3.1018 3.85934 -5.71344 -0.874326 19.0271 -56.0004 1.03162 27.068 -0.248325 -1.1452 0.0417555 -0.140283 -0.338505 20.2967 10.9009 0.0 0.0 0.0 25.071 -28.661 -18.6109 -38.0514 -0.347476 5.72355 36.55 -8.94496 -4.69139 11.5782 -0.0 -0.0 -0.0 0.0 -0.0 14.6455 -1.85833 -18.5128 1.35963 0.0583716 0.200468 25.0719 -2.21608 3.349 0.205857 -0.0 -0.0 0.0 0.0 0.0 
621.695 694.968 -1898.23 -69.2746 81.1082 83.6646 2.7473 -0.949234 -5.15427 2.76186 -0.619786 -5.20404 2.81483 0.230754 -5.23565 2.7771 -0.597871 -5.2066 4.4633 -7.35105 8.48819 5.32719 -19.9875 9.4065 -0.0 0.0 -0.0 7.58633 4.38143 14.672 -30.9282 -10.903 74.0065 0.560315 -15.5129 0.0763203 25.1178 0.191276 -3.17729 0.471485 -1.08932 2.69818 -0.0 0.0 -0.0 3.77115 2.24414 -7.14671 -0.144881 19.7735 -54.8657 0.987681 26.0705 -0.22867 -2.4873 0.0942521 -0.3036 -0.497838 19.6483 11.7055 0.0 0.0 0.0 26.9998 -29.7705 -17.7669 -36.9817 -0.285994 5.57109 35.7821 -10.1277 -4.64371 11.6631 -0.0 -0.0 -0.0 0.0 -0.0 14.5799 -2.6432 -18.2337 0.930218 0.039421 0.137301 25.7303 -1.48693 3.42837 0.879358 -0.0 -0.0 0.0 0.0 0.0 
615.259 695.091 -1899.24 -65.05 80.7366 79.2127 2.82842 -0.951274 -5.05182 2.84239 -0.628315 -5.10193 2.89485 0.198541 -5.13655 2.85858 -0.614094 -5.10366 5.99076 -7.02742 8.53986 6.90402 -19.4465 9.78412 -0.0 0.0 -0.0 7.92646 3.77298 15.3472 -30.5577 -11.1065 73.7955 0.44299 -12.3773 0.0480354 25.2009 0.189587 -3.18777 0.539402 -0.415456 3.43283 -0.0 0.0 -0.0 4.14849 2.47845 -7.87963 -0.426711 18.8045 -54.4778 0.985896 26.0296 -0.227886 -2.65339 0.101014 -0.323725 -0.549565 20.5486 12.4271 0.0 0.0 0.0 32.2004 -31.1714 -14.9912 -31.8787 -0.0324681 4.82958 34.9797 -9.35732 -4.54896 10.7223 -0.0 -0.0 -0.0 0.0 -0.0 13.8271 -2.98296 -18.4634 1.09516 0.0466438 0.16158 26.1469 -2.33529 3.47179 1.13209 -0.0 -0.0 0.0 0.0 0.0 
608.997 696.215 -1900.19 -65.026 79.5672 78.4296 2.93878 -0.906343 -4.9116 2.952 -0.592363 -4.95915 2.99954 0.202062 -4.99024 2.96529 -0.587599 -4.95972 7.64015 -6.63198 8.5477 8.58749 -18.7435 10.1207 -0.0 0.0 -0.0 8.15831 3.30988 15.8143 -29.8376 -11.2221 73.5445 0.402319 -11.2714 0.0397011 25.0015 0.193615 -3.16262 0.690276 -0.154152 4.55152 -0.0 0.0 -0.0 3.60189 0.27562 -6.92938 0.325354 19.8081 -55.8489 1.08241 28.1991 -0.271881 -3.54869 0.138473 -0.431873 -0.614979 20.9111 13.0178 0.0 0.0 0.0 32.2874 -31.903 -14.3787 -28.544 0.0970742 4.33428 36.5398 -9.06634 -4.69296 11.1257 -0.0 -0.0 -0.0 0.0 -0.0 14.3677 -2.93434 -17.9498 1.94038 0.0847535 0.285672 26.6038 -2.90245 3.52123 0.468422 -0.0 -0.0 0.0 0.0 0.0 
606.177 697.349 -1900.23 -66.2152 78.953 79.4587 3.05763 -0.910963 -4.81144 3.07031 -0.603323 -4.8595 3.11749 0.165254 -4.89394 3.0846 -0.608795 -4.85882 9.05466 -6.47685 8.6095 10.0558 -18.4947 10.4699 -0.0 0.0 -0.0 8.46393 3.01877 16.4241 -28.6158 -11.7021 73.1262 0.369995 -10.3864 0.0336279 25.0855 0.191928 -3.17322 0.724966 0.0437497 4.86535 -0.0 0.0 -0.0 4.46449 -1.92005 -8.6938 -0.0308358 18.3226 -54.7667 1.17411 30.1821 -0.316613 -4.29309 0.170903 -0.521345 -0.603588 21.7065 13.2666 0.0 0.0 0.0 31.4285 -32.5457 -14.4202 -26.3514 0.166434 4.00496 38.0796 -8.68723 -4.82768 11.3837 -0.0 -0.0 -0.0 0.0 -0.0 13.8788 -5.89856 -18.0534 2.24566 0.0989684 0.330354 26.6273 -3.81252 3.52083 1.08594 -0.0 -0.0 0.0 0.0 0.0 
600.779 698.597 -1900.99 -64.9995 78.0325 77.8986 3.20327 -0.901328 -4.67535 3.21522 -0.602337 -4.72308 3.26063 0.132908 -4.7594 3.22956 -0.619564 -4.72086 9.92306 -5.78408 8.23557 10.8206 -16.9921 10.1469 -0.0 0.0 -0.0 8.48876 2.43664 16.4954 -26.764 -12.2752 72.9079 0.359933 -10.1098 0.0318377 24.8872 0.195885 -3.14819 0.782539 0.207007 5.31822 -0.0 0.0 -0.0 4.48083 -3.299 -8.77302 -0.524204 18.2737 -55.1296 1.27479 32.2708 -0.368817 -4.94548 0.200281 -0.599411 -0.347452 22.8809 12.0294 0.0 0.0 0.0 29.9162 -33.3107 -15.2289 -24.2691 0.220587 3.69 37.3683 -8.63419 -4.76142 11.6549 -0.0 -0.0 -0.0 0.0 -0.0 14.5595 -4.26947 -17.526 2.40435 0.106452 0.353552 25.7762 -5.1267 3.42123 0.556073 -0.0 -0.0 0.0 0.0 0.0 
598.524 698.098 -1897.29 -65.6996 77.2547 78.6228 3.33551 -0.883958 -4.75401 3.3479 -0.580015 -4.80048 3.39161 0.155922 -4.8328 3.35954 -0.60839 -4.79697 10.6643 -5.41906 7.70575 11.4721 -15.8913 9.5983 -0.0 0.0 -0.0 8.74451 2.8979 16.9823 -25.5881 -13.3254 72.4604 0.376246 -10.5579 0.034764 24.4469 0.204357 -3.09259 0.860814 -0.255735 5.65412 -0.0 0.0 -0.0 4.4172 -3.12223 -8.64703 -1.72018 18.4309 -54.2033 1.31184 33.0162 -0.388802 -4.73586 0.190744 -0.574364 -0.197572 24.1451 11.5524 0.0 0.0 0.0 29.7058 -33.8316 -15.3338 -23.1722 0.244497 3.52338 36.2909 -7.92673 -4.64661 12.1461 -0.0 -0.0 -0.0 0.0 -0.0 14.4109 -4.33707 -17.6341 3.53535 0.161647 0.518282 25.4272 -6.46751 3.38007 0.484239 -0.0 -0.0 0.0 0.0 0.0 
591.54 698.908 -1899.12 -66.0082 76.9313 78.8666 3.41468 -0.912763 -4.74203 3.42698 -0.609521 -4.79035 3.47281 0.118254 -4.82744 3.44089 -0.644744 -4.78575 11.1555 -4.85289 7.96698 11.9493 -15.1997 9.99433 -0.0 0.0 -0.0 9.33899 3.6432 18.1199 -24.8295 -12.8139 72.1801 0.344294 -9.67904 0.0291505 24.6988 0.199562 -3.12441 0.776083 0.385434 5.34793 -0.0 0.0 -0.0 4.85198 -5.02396 -9.51411 -2.28764 17.444 -54.0528 1.37829 34.3221 -0.425645 -5.27707 0.215554 -0.638961 -0.0441796 24.3999 10.6434 0.0 0.0 0.0 28.8011 -34.1853 -15.7508 -22.2009 0.263003 3.37548 37.471 -7.91659 -4.75664 12.3425 -0.0 -0.0 -0.0 0.0 -0.0 14.7369 -5.45861 -17.3784 2.6734 0.119287 0.392836 25.4312 -5.73326 3.38092 0.532843 -0.0 -0.0 0.0 0.0 0.0 
585.582 697.351 -1900.16 -64.6166 77.0992 77.9449 3.33775 -0.917233 -4.85561 3.35066 -0.606781 -4.90397 3.39749 0.144611 -4.93917 3.36403 -0.636298 -4.90024 11.6486 -5.0458 7.78392 12.455 -15.3267 9.84849 -0.0 0.0 -0.0 9.36978 3.69311 18.1779 -23.7322 -13.1789 71.9527 0.40164 -11.2529 0.0395683 24.7364 0.198834 -3.12916 0.611683 -0.00705304 4.08552 -0.0 0.0 -0.0 4.50481 -6.68401 -8.91298 -2.40794 17.7993 -54.6449 1.43255 35.359 -0.456642 -5.81193 0.240672 -0.702573 0.125589 25.2676 9.88822 0.0 0.0 0.0 26.1684 -33.4402 -17.1121 -19.8424 0.297481 3.01525 37.0983 -6.7457 -4.70072 12.9426 -0.0 -0.0 -0.0 0.0 -0.0 14.0843 -4.88509 -18.0679 2.18859 0.096293 0.322007 27.0286 -6.76686 3.56228 0.442228 -0.0 -0.0 0.0 0.0 0.0 
583.347 696.227 -1898.74 -63.4985 76.2679 77.3349 3.34101 -0.908511 -5.03619 3.35493 -0.586628 -5.08363 3.40144 0.191584 -5.11369 3.3655 -0.617369 -5.07999 12.1875 -4.94053 7.81918 13.0029 -15.172 9.97793 -0.0 0.0 -0.0 9.34701 3.60959 18.1378 -22.307 -13.4988 72.4022 0.446296 -12.4667 0.0487466 24.8401 0.196812 -3.14225 0.644113 0.135319 4.36129 -0.0 0.0 -0.0 4.6099 -6.99962 -9.11072 -3.55069 17.4521 -54.1649 1.4622 35.9147 -0.473916 -5.9239 0.246005 -0.715859 0.109488 25.5876 10.1274 0.0 0.0 0.0 24.911 -33.1328 -19.0801 -19.881 0.297036 3.02116 38.3976 -7.58074 -4.83452 12.0913 -0.0 -0.0 -0.0 0.0 -0.0 14.4442 -4.47522 -18.4879 3.0246 0.136318 0.444025 26.4802 -6.92895 3.50045 0.315225 -0.0 -0.0 0.0 0.0 0.0 
577.584 696.875 -1892.14 -62.2625 75.9062 75.9876 3.3639 -0.944386 -5.09722 3.37814 -0.618564 -5.1468 3.42795 0.167093 -5.18105 3.3911 -0.652151 -5.14266 12.4403 -4.95413 7.97997 13.2878 -15.333 10.2274 -0.0 0.0 -0.0 8.87708 2.44848 17.2649 -19.5476 -12.7606 74.3097 0.481476 -13.4151 0.0566252 25.8293 0.176321 -3.26694 0.646575 -0.454605 4.13481 -0.0 0.0 -0.0 4.67909 -7.61835 -9.24737 -3.80242 16.3067 -54.0536 1.43047 35.3198 -0.45544 -6.30351 0.264281 -0.76083 0.190132 25.8249 9.69912 0.0 0.0 0.0 24.58 -32.5623 -18.9515 -19.3569 0.302736 2.94094 35.1927 -7.53439 -4.53395 11.7553 -0.0 -0.0 -0.0 0.0 -0.0 13.8354 -5.57985 -17.8701 2.92473 0.131443 0.429479 27.2616 -5.61701 3.58872 0.481668 -0.0 -0.0 0.0 0.0 0.0 
